<svg width="60" height="60" viewBox="0 0 60 60" fill="none" xmlns="http://www.w3.org/2000/svg">
<circle cx="30" cy="30" r="29.5" fill="black" stroke="#3D3C3C"/>
<path d="M38.1377 41.32C38.0977 41.04 38.0177 40.74 37.8977 40.42C37.7977 40.12 37.5677 39.97 37.2077 39.97C36.9077 39.97 36.4977 39.98 35.9777 40C35.4777 40.04 34.9377 40.08 34.3577 40.12C33.7777 40.18 33.1977 40.22 32.6177 40.24C32.0377 40.28 31.5277 40.3 31.0877 40.3C29.3477 40.3 27.8077 40.05 26.4677 39.55C25.1277 39.05 23.9977 38.36 23.0777 37.48C22.1577 36.6 21.4577 35.55 20.9777 34.33C20.4977 33.09 20.2577 31.73 20.2577 30.25C20.2577 28.19 20.5877 26.42 21.2477 24.94C21.9077 23.44 22.7977 22.21 23.9177 21.25C25.0377 20.29 26.3277 19.59 27.7877 19.15C29.2477 18.69 30.7777 18.46 32.3777 18.46C32.8577 18.46 33.3777 18.48 33.9377 18.52C34.4977 18.54 35.0277 18.58 35.5277 18.64C36.0277 18.68 36.4677 18.73 36.8477 18.79C37.2277 18.83 37.4977 18.87 37.6577 18.91C37.7577 18.93 37.8577 18.76 37.9577 18.4C38.0577 18.04 38.1777 17.65 38.3177 17.23C38.4777 16.79 38.6577 16.39 38.8577 16.03C39.0577 15.65 39.2977 15.46 39.5777 15.46C39.9177 15.56 40.1577 15.67 40.2977 15.79C40.4377 15.91 40.3677 16.07 40.0877 16.27C39.6277 16.63 39.2377 17.12 38.9177 17.74C38.6177 18.34 38.3477 19.07 38.1077 19.93C38.0077 20.19 37.8977 20.56 37.7777 21.04C37.6777 21.52 37.5877 22.06 37.5077 22.66C37.4677 22.82 37.3377 22.9 37.1177 22.9C36.9177 22.88 36.7777 22.73 36.6977 22.45C36.5977 22.17 36.4077 21.86 36.1277 21.52C35.8477 21.16 35.4777 20.82 35.0177 20.5C34.5577 20.18 34.0077 19.92 33.3677 19.72C32.7277 19.5 32.0077 19.39 31.2077 19.39C30.3077 19.39 29.4877 19.63 28.7477 20.11C28.0077 20.57 27.3677 21.19 26.8277 21.97C26.2877 22.73 25.8577 23.61 25.5377 24.61C25.2177 25.59 25.0277 26.61 24.9677 27.67C25.1277 27.71 25.4577 27.75 25.9577 27.79C26.4777 27.83 27.0377 27.86 27.6377 27.88C28.2377 27.9 28.8177 27.92 29.3777 27.94C29.9377 27.94 30.3577 27.93 30.6377 27.91C31.2777 27.91 31.9077 27.88 32.5277 27.82C33.1477 27.76 33.7177 27.68 34.2377 27.58C34.7577 27.46 35.2077 27.33 35.5877 27.19C35.9677 27.05 36.2377 26.9 36.3977 26.74C36.4777 26.62 36.5877 26.57 36.7277 26.59C36.8877 26.61 36.9977 26.66 37.0577 26.74C37.0177 26.92 36.9477 27.16 36.8477 27.46C36.7477 27.74 36.6377 28.07 36.5177 28.45C36.3977 28.83 36.2977 29.25 36.2177 29.71C36.1377 30.17 36.0977 30.65 36.0977 31.15C36.0577 31.35 35.9377 31.41 35.7377 31.33C35.5577 31.25 35.4477 31.14 35.4077 31C35.3277 30.68 35.1277 30.43 34.8077 30.25C34.5077 30.07 34.1077 29.94 33.6077 29.86C33.1277 29.76 32.5777 29.7 31.9577 29.68C31.3377 29.66 30.6677 29.65 29.9477 29.65C28.5877 29.65 27.4877 29.66 26.6477 29.68C25.8277 29.7 25.2477 29.72 24.9077 29.74C24.9077 30.34 24.9477 30.99 25.0277 31.69C25.1277 32.39 25.2877 33.09 25.5077 33.79C25.7277 34.49 26.0177 35.17 26.3777 35.83C26.7377 36.47 27.1877 37.05 27.7277 37.57C28.2677 38.07 28.9077 38.47 29.6477 38.77C30.4077 39.07 31.2777 39.22 32.2577 39.22C33.1977 39.22 34.0277 39.11 34.7477 38.89C35.4677 38.65 36.0777 38.37 36.5777 38.05C37.0777 37.71 37.4777 37.36 37.7777 37C38.0977 36.64 38.3177 36.32 38.4377 36.04C38.4977 35.98 38.5377 35.95 38.5577 35.95C38.6377 35.95 38.7277 35.98 38.8277 36.04C38.9477 36.1 39.0077 36.18 39.0077 36.28C38.9477 36.5 38.8877 36.74 38.8277 37C38.7277 37.5 38.6777 38.07 38.6777 38.71C38.6777 39.23 38.6977 39.74 38.7377 40.24C38.7777 40.74 38.8477 41.16 38.9477 41.5C38.7477 41.58 38.5677 41.61 38.4077 41.59C38.2677 41.59 38.1777 41.5 38.1377 41.32Z" fill="white"/>
</svg>
